<svg width="22" height="23" viewBox="0 0 22 23" fill="none" xmlns="http://www.w3.org/2000/svg">
<path d="M7.66679 22V13.7045C7.66679 13.0767 7.66679 12.7628 7.78789 12.523C7.89442 12.3121 8.0644 12.1406 8.27346 12.0331C8.51114 11.9109 8.82228 11.9109 9.44456 11.9109H12.5557C13.178 11.9109 13.4891 11.9109 13.7268 12.0331C13.9358 12.1406 14.1058 12.3121 14.2124 12.523C14.3335 12.7628 14.3335 13.0767 14.3335 13.7045V22M9.90867 1.55731L2.37278 7.47077C1.86903 7.86606 1.61716 8.06371 1.43571 8.31123C1.27497 8.53048 1.15523 8.77748 1.08237 9.0401C1.00012 9.33657 1.00012 9.6585 1.00012 10.3024V18.4128C1.00012 19.6684 1.00012 20.2962 1.24233 20.7758C1.45538 21.1977 1.79534 21.5407 2.21347 21.7556C2.68883 22 3.31111 22 4.55568 22H17.4446C18.6891 22 19.3114 22 19.7868 21.7556C20.2049 21.5407 20.5449 21.1977 20.7579 20.7758C21.0001 20.2962 21.0001 19.6684 21.0001 18.4128V10.3024C21.0001 9.6585 21.0001 9.33657 20.9179 9.0401C20.845 8.77748 20.7253 8.53048 20.5645 8.31123C20.3831 8.06371 20.1312 7.86606 19.6275 7.47077L12.0916 1.55731C11.7012 1.25099 11.506 1.09783 11.2905 1.03896C11.1003 0.987013 10.8999 0.987013 10.7097 1.03896C10.4942 1.09783 10.299 1.25099 9.90867 1.55731Z" stroke="black" stroke-width="2" stroke-linecap="round" stroke-linejoin="round"/>
</svg>
